Las Vegas motor speedway 3rd race for the cup in the 2011 season aired 3/6/2011. I've got the 5.1 surround sound encoded in this one and increased the over all bitrate. Sorry for the delay been working on this the whole time, made some codec changes that seemed to be slowing me down, but hey this came out great so hope ya all enjoy. See ya in 2 weeks for Bristol. 

General
Complete name                    : NASCAR 2011 Las Vegas Kobalt tools 400 HDTV_JHW.mp4
Format                           : MPEG-4
Format profile                   : Base Media / Version 2
Codec ID                         : mp42
File size                        : 1.77 GiB
Duration                         : 2h 53mn
Overall bit rate                 : 1 459 Kbps
Encoded date                     : UTC 2011-03-06 22:04:39
Tagged date                      : UTC 2011-03-06 22:04:39
Writing library                  : AVS 

Video
ID                               : 1
Format                           : AVC
Format/Info                      : Advanced Video Codec
Format profile                   : Main@L5.1
Format settings, CABAC           : Yes
Format settings, ReFrames        : 2 frames
Codec ID                         : avc1
Codec ID/Info                    : Advanced Video Coding
Duration                         : 2h 53mn
Bit rate mode                    : Variable
Bit rate                         : 1 201 Kbps
Width                            : 720 pixels
Height                           : 400 pixels
Display aspect ratio             : 16:9
Frame rate mode                  : Constant
Frame rate                       : 29.970 fps
Color space                      : YUV
Chroma subsampling               : 4:2:0
Bit depth                        : 8 bits
Scan type                        : Progressive
Bits/(Pixel*Frame)               : 0.139
Stream size                      : 1.46 GiB (82%)
Language                         : English
Encoded date                     : UTC 2011-03-06 22:04:39
Tagged date                      : UTC 2011-03-06 22:04:39

Audio
ID                               : 2
Format                           : AAC
Format/Info                      : Advanced Audio Codec
Format profile                   : LC
Codec ID                         : 40
Duration                         : 2h 53mn
Bit rate mode                    : Constant
Bit rate                         : 248 Kbps
Nominal bit rate                 : 192 Kbps
Channel(s)                       : 6 channels
Channel positions                : Front: L C R, Side: L R, LFE
Sampling rate                    : 48.0 KHz
Compression mode                 : Lossy
Stream size                      : 309 MiB (17%)
Language                         : English
Encoded date                     : UTC 2011-03-06 22:04:39
Tagged date                      : UTC 2011-03-06 22:04:39

[img]http://img856.imageshack.us/img856/6611/vlcsnap2011030717h07m42.png[/img]

[img]http://img703.imageshack.us/img703/4082/vlcsnap2011030717h07m58.png[/img]

[img]http://img40.imageshack.us/img40/3600/vlcsnap2011030717h08m05.png[/img]

[img]http://img822.imageshack.us/img822/1720/vlcsnap2011030717h08m09.png[/img]

[img]http://img232.imageshack.us/img232/7358/vlcsnap2011030717h08m41.png[/img]

[img]http://img155.imageshack.us/img155/6933/vlcsnap2011030717h09m02.png[/img]

[img]http://img69.imageshack.us/img69/2412/vlcsnap2011030717h09m08.png[/img]

[img]http://img97.imageshack.us/img97/4307/vlcsnap2011030717h09m17.png[/img]